<svg xmlns="http://www.w3.org/2000/svg" viewBox="0 0 512 512" width="512" height="512" role="img" aria-label="Forecast">
  <!-- The app's "partly cloudy" mark on a tile of #103a86, the mid blue of the
       forecast panels' background gradient. Gradients and shapes match
       WeatherIconsHelper's sun/cloud, drawn in its 64-unit space and scaled up;
       the rays are a touch heavier so they survive at 16px. -->
  <defs>
    <radialGradient id="sun" cx="42%" cy="38%" r="65%">
      <stop offset="0%" stop-color="#fff3b0"/>
      <stop offset="55%" stop-color="#ffd21e"/>
      <stop offset="100%" stop-color="#ff9d00"/>
    </radialGradient>
    <linearGradient id="cloud" x1="0" y1="0" x2="0" y2="1">
      <stop offset="0%" stop-color="#ffffff"/>
      <stop offset="100%" stop-color="#cbd8ea"/>
    </linearGradient>
  </defs>

  <rect width="512" height="512" rx="64" fill="#103a86"/>

  <g transform="translate(60 86) scale(6.6)">
    <!-- Sun, peeking over the cloud's shoulder. Six of the eight rays, sweeping
         from 7:30 round to 3 o'clock: only 4:30 and 6 are dropped, because
         those are the two the cloud sits in front of. Shorter and fatter than
         the panel artwork's, which washed out into the tile at 16px. -->
    <g stroke="#ffcf3f" stroke-width="4.6" stroke-linecap="round">
      <line x1="12.4" y1="29.6" x2="8.5" y2="33.5"/>
      <line x1="8.5" y1="20" x2="3" y2="20"/>
      <line x1="12.4" y1="10.4" x2="8.5" y2="6.5"/>
      <line x1="22" y1="6.5" x2="22" y2="1"/>
      <line x1="31.6" y1="10.4" x2="35.5" y2="6.5"/>
      <line x1="35.5" y1="20" x2="41" y2="20"/>
    </g>
    <circle cx="22" cy="20" r="11" fill="url(#sun)"/>
    <ellipse cx="18.2" cy="15.6" rx="4.4" ry="3.1" fill="#fff7cf" opacity="0.55"/>

    <!-- Cloud, in front. -->
    <g fill="url(#cloud)">
      <circle cx="23" cy="40" r="11"/>
      <circle cx="38" cy="35" r="14"/>
      <circle cx="47" cy="41" r="10"/>
      <rect x="19" y="40" width="30" height="11" rx="5.5"/>
    </g>
    <ellipse cx="34" cy="27" rx="8" ry="4" fill="#ffffff" opacity="0.7"/>
  </g>
</svg>
